<?xml version="1.0" encoding="utf-8"?>
<!-- Generator: Adobe Illustrator 25.2.0, SVG Export Plug-In . SVG Version: 6.00 Build 0)  -->
<svg version="1.1" id="Слой_1" xmlns="http://www.w3.org/2000/svg" xmlns:xlink="http://www.w3.org/1999/xlink" x="0px" y="0px"
	 viewBox="0 0 24 24" style="enable-background:new 0 0 24 24;" xml:space="preserve">
<style type="text/css">
	.st0{fill:#847467;}
</style>
<g>
	<path class="st0" d="M21.7,12.6H21h-8.5v9.1h-1v-9.1H2.4v8.2c0,0.5,0.4,0.9,0.9,0.9h17.5c0.5,0,0.9-0.4,0.9-0.9L21.7,12.6
		L21.7,12.6z"/>
	<path class="st0" d="M21.7,6.7h-3.9c1.7-0.8,1.9-6.1-2.8-5.7c-1.6,0.2-2.5,1.7-2.9,3.1C11.5,2.7,10.7,1.2,9.1,1
		C4.3,0.5,4.5,5.8,6.2,6.7H2.3c-0.5,0-0.9,0.4-0.9,0.9v3c0,0.5,0.4,0.9,0.9,0.9h0.1l18.6,0h0.7c0.4,0,0.8-0.4,0.9-0.8V7.6
		C22.6,7.1,22.2,6.7,21.7,6.7z M11.5,6.7H8.6C7.6,6,7.5,2.8,10.5,3c1,0.1,1.2,1,1.3,1.8C11.6,5.7,11.5,6.4,11.5,6.7z M15.4,6.7h-2.9
		c0-0.3-0.1-1-0.3-1.8c0-0.9,0.3-1.7,1.3-1.8C16.5,2.8,16.4,6,15.4,6.7z"/>
</g>
</svg>
